<?xml version="1.0" standalone="no"?>
<!DOCTYPE svg PUBLIC "-//W3C//DTD SVG 20010904//EN"
 "http://www.w3.org/TR/2001/REC-SVG-20010904/DTD/svg10.dtd">
<svg version="1.0" xmlns="http://www.w3.org/2000/svg"
 width="793.000000pt" height="402.000000pt" viewBox="0 0 793.000000 402.000000"
 preserveAspectRatio="xMidYMid meet">

<g transform="translate(0.000000,402.000000) scale(0.100000,-0.100000)"
fill="#000000" stroke="none">
<path d="M1375 3680 c-104 -9 -232 -48 -357 -111 -117 -58 -300 -182 -374
-254 -55 -53 -63 -66 -74 -118 -20 -99 9 -149 96 -163 36 -5 45 -3 77 26 33
29 37 37 37 80 0 44 5 54 53 110 60 68 142 133 214 169 26 13 59 30 73 37 46
23 145 53 198 60 98 13 106 -28 30 -161 -28 -49 -79 -141 -114 -202 -34 -62
-71 -125 -81 -140 -11 -16 -24 -40 -30 -54 -6 -14 -28 -52 -49 -84 -75 -114
-208 -369 -269 -515 -15 -36 -31 -69 -35 -75 -4 -5 -19 -48 -33 -95 -78 -262
-85 -363 -37 -481 60 -145 96 -189 197 -238 43 -22 76 -31 111 -31 54 0 148
33 208 74 75 50 195 181 276 301 45 66 98 143 118 170 86 117 188 277 225 353
53 111 74 112 36 1 -10 -30 -21 -91 -25 -136 -4 -46 -12 -98 -17 -115 -6 -18
-10 -82 -10 -141 1 -98 3 -112 27 -155 15 -26 43 -64 63 -84 32 -35 40 -38 88
-38 67 0 137 31 268 118 114 76 242 197 274 259 26 53 28 114 3 136 -10 10
-24 17 -30 17 -7 0 -70 -54 -140 -120 -70 -67 -147 -132 -170 -145 l-44 -25
-39 23 -39 22 6 55 c12 109 80 398 115 487 6 15 13 39 15 52 3 13 11 36 19 52
8 15 15 34 15 42 0 21 112 292 158 382 22 44 61 105 86 134 53 64 63 98 43
138 -47 90 -169 121 -258 65 -103 -67 -137 -114 -289 -402 -103 -196 -239
-425 -360 -606 -111 -166 -378 -502 -459 -577 -106 -98 -205 -134 -228 -84
-15 32 0 165 27 242 11 32 20 65 20 74 0 9 7 29 15 45 8 15 15 36 15 45 0 9 4
21 9 26 4 6 14 32 20 59 7 28 21 69 32 92 10 24 19 49 19 57 0 8 11 30 24 50
13 19 42 70 64 113 22 44 73 143 114 220 40 78 101 195 134 261 34 66 85 157
115 204 83 132 129 238 129 297 0 60 -19 108 -57 144 -31 29 -115 69 -141 67
-9 -1 -58 -5 -107 -9z"/>
<path d="M7153 2899 c-67 -19 -105 -102 -81 -175 18 -53 66 -84 131 -84 44 0
53 4 88 39 34 34 39 44 39 86 0 63 -28 108 -80 129 -45 18 -51 18 -97 5z m98
-35 c36 -18 62 -73 53 -112 -9 -39 -52 -81 -90 -88 -68 -13 -132 53 -120 124
12 77 87 113 157 76z"/>
<path d="M7140 2770 c0 -56 3 -70 15 -70 10 0 15 10 15 30 0 17 4 30 9 30 6 0
18 -13 28 -30 9 -16 26 -30 36 -30 19 0 16 10 -12 43 -14 17 -14 19 2 28 20
12 22 40 5 57 -7 7 -31 12 -55 12 l-43 0 0 -70z m75 30 c0 -8 -10 -16 -22 -18
-18 -3 -23 2 -23 18 0 16 5 21 23 18 12 -2 22 -10 22 -18z"/>
<path d="M2602 1983 l3 -618 165 0 165 0 5 230 5 230 50 0 49 0 21 -76 c36
-130 109 -265 188 -351 l35 -38 201 0 c110 0 201 4 201 9 0 4 -19 21 -42 36
-102 67 -367 368 -372 421 -1 10 21 22 64 37 127 43 223 124 277 236 25 49 28
67 27 146 -1 113 -25 174 -95 240 -109 102 -178 115 -612 115 l-337 0 2 -617z
m576 482 c47 -20 79 -50 104 -99 17 -34 20 -54 16 -145 -5 -122 -21 -164 -87
-224 -49 -44 -100 -59 -194 -55 l-72 3 -3 268 -2 267 100 0 c68 0 113 -5 138
-15z"/>
<path d="M5675 2588 c-2 -7 -15 -80 -29 -163 -25 -150 -73 -434 -141 -828 -19
-114 -35 -214 -35 -222 0 -12 18 -15 99 -15 l99 0 6 28 c4 15 17 137 31 272
13 135 30 292 36 350 6 58 14 135 17 173 7 70 21 89 35 46 4 -13 65 -213 135
-444 l128 -420 155 0 154 0 13 40 c13 42 100 363 172 640 23 88 44 166 46 174
10 31 23 -8 33 -99 45 -402 82 -719 86 -737 5 -23 8 -23 170 -23 90 0 166 4
169 9 3 4 -3 68 -14 142 -11 74 -27 186 -36 249 -8 63 -19 144 -24 180 -6 36
-22 148 -36 250 -14 102 -33 235 -43 295 l-16 110 -157 3 -156 2 -17 -56 c-37
-129 -256 -831 -265 -853 -14 -31 -21 -23 -41 52 -9 34 -67 226 -129 427 -62
201 -116 380 -122 398 l-9 32 -155 0 c-115 0 -156 -3 -159 -12z"/>
<path d="M2385 1031 c-90 -22 -130 -104 -86 -177 16 -26 34 -37 103 -59 117
-38 146 -78 93 -131 -21 -21 -33 -25 -72 -22 -41 3 -50 7 -68 35 -14 23 -28
32 -47 33 -35 0 -37 -25 -7 -64 29 -37 71 -56 124 -56 89 0 147 47 149 121 1
60 -28 90 -116 119 -85 28 -118 52 -118 85 0 40 31 67 79 69 37 1 47 -4 70
-32 19 -21 36 -32 54 -32 31 0 33 9 12 50 -25 48 -104 76 -170 61z"/>
<path d="M5710 1030 c-106 -20 -180 -113 -180 -227 0 -58 46 -142 97 -177 88
-61 219 -44 288 37 137 160 0 405 -205 367z m128 -70 c97 -60 93 -242 -7 -298
-107 -60 -228 7 -239 132 -5 68 23 135 71 165 44 28 130 28 175 1z"/>
<path d="M560 810 l0 -220 30 0 30 0 0 100 0 100 75 0 c73 0 75 1 75 25 0 24
-2 25 -75 25 l-75 0 0 70 0 70 95 0 c95 0 95 0 95 25 l0 25 -125 0 -125 0 0
-220z"/>
<path d="M1000 810 l0 -221 118 3 c113 3 117 4 120 26 3 21 1 22 -87 22 l-91
0 0 75 0 75 80 0 c79 0 80 0 80 25 0 25 -1 25 -80 25 l-80 0 0 70 0 70 90 0
c89 0 90 0 90 25 l0 25 -120 0 -120 0 0 -220z"/>
<path d="M1450 810 l0 -220 115 0 115 0 0 25 c0 25 -1 25 -85 25 l-85 0 0 75
0 75 74 0 c65 0 74 2 79 19 3 11 2 22 -1 25 -3 3 -38 6 -79 6 l-73 0 0 70 0
70 85 0 c84 0 85 0 85 25 l0 25 -115 0 -115 0 0 -220z"/>
<path d="M1894 1017 c-2 -7 -3 -105 -2 -217 l3 -205 105 0 c98 0 105 1 105 20
0 18 -8 20 -77 23 l-78 3 0 194 0 195 -25 0 c-14 0 -28 -6 -31 -13z"/>
<path d="M3080 810 l0 -220 105 0 105 0 0 25 c0 25 -1 25 -80 25 l-80 0 0 195
0 195 -25 0 -25 0 0 -220z"/>
<path d="M3472 813 l3 -218 28 -3 27 -3 0 220 0 221 -30 0 -30 0 2 -217z"/>
<path d="M3750 810 l0 -220 30 0 30 0 0 95 c0 52 3 95 8 94 4 0 44 -43 90 -95
75 -84 87 -94 118 -94 19 0 34 2 34 4 0 2 -43 51 -95 108 -52 56 -95 105 -95
108 0 3 42 52 94 110 l94 105 -31 3 c-33 4 -47 -8 -170 -147 l-47 -53 0 101 0
101 -30 0 -30 0 0 -220z"/>
<path d="M4252 813 l3 -218 118 -3 117 -3 0 26 c0 25 0 25 -90 25 l-90 0 0 75
0 75 80 0 c79 0 80 0 80 25 0 25 -1 25 -80 25 l-80 0 0 70 0 70 90 0 c89 0 90
0 90 25 l0 25 -120 0 -120 0 2 -217z"/>
<path d="M4992 813 l3 -218 28 -3 27 -3 0 100 0 101 110 0 109 0 3 -97 3 -98
28 -3 27 -3 0 220 0 221 -30 0 -30 0 0 -95 0 -95 -110 0 -110 0 0 95 0 95 -30
0 -30 0 2 -217z"/>
<path d="M6170 811 l0 -221 30 0 29 0 3 155 3 155 69 -156 c90 -200 88 -200
176 -2 36 80 68 150 73 154 4 4 7 -63 7 -149 l0 -157 25 0 25 0 0 220 0 220
-28 0 c-27 0 -32 -9 -106 -175 -43 -96 -81 -175 -85 -175 -3 0 -40 78 -82 173
-73 167 -76 172 -107 175 l-32 3 0 -220z"/>
<path d="M6840 820 c0 -116 0 -213 0 -217 0 -5 52 -9 115 -11 l115 -3 0 26 c0
25 0 25 -90 25 l-90 0 0 75 0 75 80 0 c79 0 80 0 80 25 0 25 -1 25 -80 25
l-80 0 0 70 0 70 90 0 c89 0 90 0 90 25 l0 25 -115 0 -115 0 0 -210z"/>
</g>
</svg>
