<svg width="211" height="47" viewBox="0 0 211 47" fill="none" xmlns="http://www.w3.org/2000/svg">
<path fill-rule="evenodd" clip-rule="evenodd" d="M2.69461 2.75319C2.74181e-07 5.5064 0 9.93759 0 18.8V28.2C0 37.0623 2.74181e-07 41.4937 2.69461 44.2467C5.38924 47 9.72615 47 18.4 47H27.6C36.2738 47 40.6109 47 43.3053 44.2467C46 41.4937 46 37.0623 46 28.2V18.8C46 9.93759 46 5.5064 43.3053 2.75319C40.6109 2.80142e-07 36.2738 0 27.6 0H18.4C9.72615 0 5.38924 2.80142e-07 2.69461 2.75319ZM13.5997 15.785C14.0182 14.3704 14.7378 13.1441 15.5175 12.2989C16.3464 11.4003 17.015 11.1625 17.3021 11.1625C18.0052 11.1625 18.949 11.5799 19.8101 13.5507C20.6809 15.5442 21.2752 18.7849 21.2752 23.5C21.2752 28.4322 21.8845 32.2415 23.0398 34.8862C24.205 37.5535 26.1101 39.3625 28.6978 39.3625C30.3632 39.3625 31.8794 38.3261 32.993 37.119C34.1559 35.8584 35.1369 34.1471 35.7027 32.2349C35.9784 31.3032 35.4625 30.3195 34.5506 30.0379C33.6386 29.7562 32.6759 30.2833 32.4003 31.215C31.9817 32.6295 31.2623 33.856 30.4826 34.701C29.6537 35.5997 28.9851 35.8375 28.6978 35.8375C27.9949 35.8375 27.051 35.4201 26.1901 33.4494C25.3193 31.4559 24.7252 28.2153 24.7252 23.5C24.7252 18.5681 24.1157 14.7587 22.9604 12.1139C21.795 9.44648 19.8899 7.6375 17.3021 7.6375C15.6368 7.6375 14.1207 8.6738 13.007 9.88104C11.844 11.1416 10.863 12.8528 10.2973 14.765C10.0217 15.6968 10.5375 16.6805 11.4494 16.9621C12.3614 17.2438 13.3241 16.7167 13.5997 15.785ZM9.2 21.7375C8.24732 21.7375 7.475 22.5266 7.475 23.5C7.475 24.4734 8.24732 25.2625 9.2 25.2625H17.25C18.2027 25.2625 18.975 24.4734 18.975 23.5C18.975 22.5266 18.2027 21.7375 17.25 21.7375H9.2ZM28.75 21.7375C27.7973 21.7375 27.025 22.5266 27.025 23.5C27.025 24.4734 27.7973 25.2625 28.75 25.2625H36.8C37.7527 25.2625 38.525 24.4734 38.525 23.5C38.525 22.5266 37.7527 21.7375 36.8 21.7375H28.75Z" fill="#8338EC"/>
<path d="M54 16.1069V11.3325H74.1453V16.1069H66.9181V35.6556H61.2388V16.1069H54Z" fill="white"/>
<path d="M80.6002 35.6556V11.3325H90.4459C92.2304 11.3325 93.7705 11.6611 95.0662 12.3183C96.3696 12.9675 97.3744 13.9018 98.0804 15.1211C98.7864 16.3325 99.1395 17.7696 99.1395 19.4323C99.1395 21.1188 98.7787 22.5519 98.0571 23.7316C97.3356 24.9034 96.3114 25.7981 94.9847 26.4157C93.658 27.0253 92.0868 27.3302 90.2713 27.3302H84.045V22.6983H89.2006C90.0696 22.6983 90.795 22.5835 91.3769 22.3539C91.9666 22.1164 92.4127 21.7601 92.7153 21.285C93.0179 20.8021 93.1692 20.1845 93.1692 19.4323C93.1692 18.6801 93.0179 18.0586 92.7153 17.5677C92.4127 17.0689 91.9666 16.6968 91.3769 16.4513C90.7873 16.1979 90.0618 16.0713 89.2006 16.0713H86.361V35.6556H80.6002ZM94.0188 24.5392L99.9541 35.6556H93.6696L87.8506 24.5392H94.0188Z" fill="white"/>
<path d="M111.701 11.3325V35.6556H105.941V11.3325H111.701Z" fill="white"/>
<path d="M134.601 19.2779C134.469 18.7791 134.275 18.3397 134.019 17.9596C133.763 17.5717 133.448 17.2431 133.076 16.9739C132.704 16.7047 132.277 16.5028 131.796 16.3682C131.315 16.2257 130.787 16.1544 130.213 16.1544C129.057 16.1544 128.056 16.4394 127.211 17.0095C126.373 17.5796 125.725 18.4109 125.267 19.5036C124.809 20.5883 124.58 21.9066 124.58 23.4584C124.58 25.0182 124.801 26.3484 125.244 27.4489C125.686 28.5495 126.326 29.3888 127.164 29.9667C128.002 30.5447 129.018 30.8337 130.213 30.8337C131.268 30.8337 132.161 30.6595 132.89 30.3112C133.627 29.9549 134.186 29.4521 134.566 28.8029C134.946 28.1536 135.136 27.3895 135.136 26.5107L136.207 26.6413H130.411V22.3539H140.687V25.5724C140.687 27.7498 140.233 29.6144 139.326 31.1663C138.426 32.7181 137.184 33.9097 135.602 34.7411C134.027 35.5724 132.215 35.9881 130.167 35.9881C127.893 35.9881 125.895 35.4854 124.173 34.4798C122.451 33.4743 121.108 32.0412 120.146 30.1805C119.184 28.312 118.703 26.095 118.703 23.5297C118.703 21.5344 118.994 19.7648 119.576 18.2209C120.158 16.669 120.969 15.3547 122.008 14.2779C123.056 13.2011 124.266 12.3856 125.639 11.8314C127.02 11.2771 128.506 11 130.097 11C131.478 11 132.762 11.2019 133.949 11.6057C135.144 12.0095 136.199 12.5796 137.114 13.3159C138.038 14.0523 138.786 14.9272 139.361 15.9406C139.935 16.9541 140.292 18.0665 140.431 19.2779H134.601Z" fill="white"/>
<path d="M170.22 23.4941C170.22 26.1702 169.716 28.4386 168.707 30.2993C167.699 32.1599 166.333 33.5732 164.611 34.5392C162.896 35.5051 160.972 35.9881 158.838 35.9881C156.697 35.9881 154.769 35.5012 153.054 34.5273C151.34 33.5534 149.978 32.1401 148.969 30.2874C147.968 28.4268 147.468 26.1623 147.468 23.4941C147.468 20.8179 147.968 18.5495 148.969 16.6888C149.978 14.8282 151.34 13.4149 153.054 12.4489C154.769 11.483 156.697 11 158.838 11C160.972 11 162.896 11.483 164.611 12.4489C166.333 13.4149 167.699 14.8282 168.707 16.6888C169.716 18.5495 170.22 20.8179 170.22 23.4941ZM164.331 23.4941C164.331 21.9105 164.11 20.5724 163.668 19.4798C163.234 18.3872 162.605 17.5598 161.783 16.9976C160.968 16.4355 159.987 16.1544 158.838 16.1544C157.698 16.1544 156.716 16.4355 155.894 16.9976C155.071 17.5598 154.439 18.3872 153.997 19.4798C153.562 20.5724 153.345 21.9105 153.345 23.4941C153.345 25.0776 153.562 26.4157 153.997 27.5083C154.439 28.6009 155.071 29.4283 155.894 29.9905C156.716 30.5527 157.698 30.8337 158.838 30.8337C159.987 30.8337 160.968 30.5527 161.783 29.9905C162.605 29.4283 163.234 28.6009 163.668 27.5083C164.11 26.4157 164.331 25.0776 164.331 23.4941Z" fill="white"/>
<path d="M197.51 11.3325V35.6556H192.622L183.137 21.6176H182.986V35.6556H177.225V11.3325H182.183L191.563 25.3468H191.761V11.3325H197.51Z" fill="white"/>
<path d="M207.974 36C207.136 36 206.419 35.6991 205.821 35.0974C205.231 34.4956 204.94 33.7672 204.948 32.9121C204.94 32.0728 205.231 31.3563 205.821 30.7625C206.419 30.1607 207.136 29.8599 207.974 29.8599C208.766 29.8599 209.464 30.1607 210.069 30.7625C210.682 31.3563 210.992 32.0728 211 32.9121C210.992 33.4822 210.845 34.0008 210.558 34.4679C210.278 34.9351 209.91 35.3072 209.452 35.5843C209.002 35.8614 208.509 36 207.974 36Z" fill="white"/>
</svg>
